<svg xmlns="http://www.w3.org/2000/svg" width="32" height="32" viewBox="0 0 32 32">
    <g stroke="#000" stroke-width="2" stroke-linecap="round" stroke-linejoin="round">
        <g transform="translate(16,16) rotate(180)">
            <polygon 
                    points="0,15 4.41,6.07 14.27,4.64 7.13,-2.32 8.82,-12.14 0,-7.5 -8.82,-12.14 -7.13,-2.32 -14.27,4.64 -4.41,6.07"
                    fill="none" />
            <polygon 
                    points="0,15 4.41,6.07 14.27,4.64 7.13,-2.32 8.82,-12.14 0,-7.5 -8.82,-12.14 -7.13,-2.32 -14.27,4.64 -4.41,6.07"
                    fill="#000" />
        </g>
        <g transform="translate(16,16)" stroke-dasharray="12 12" stroke-dashoffset="12">
            <polyline transform="rotate(0)" points="0 4,0 16" />
            <polyline transform="rotate(72)" points="0 4,0 16" />
            <polyline transform="rotate(144)" points="0 4,0 16" />
            <polyline transform="rotate(216)" points="0 4,0 16" />
            <polyline transform="rotate(288)" points="0 4,0 16" />
        </g>
    </g>
</svg>